<?xml version="1.0" encoding="UTF-8"?>
<svg xmlns="http://www.w3.org/2000/svg" xmlns:xlink="http://www.w3.org/1999/xlink" width="100px" height="100px" viewBox="0 0 100 100" version="1.1">
<g id="surface1">
<path style=" stroke:none;fill-rule:nonzero;fill:rgb(0%,0%,0%);fill-opacity:1;" d="M 34.6875 67.605469 L 50 52.292969 L 65.3125 67.605469 L 67.605469 65.3125 L 52.292969 50 L 67.605469 34.6875 L 65.3125 32.394531 L 50 47.707031 L 34.6875 32.394531 L 32.394531 34.6875 L 47.707031 50 L 32.394531 65.3125 Z M 50 87.5 C 44.859375 87.5 40.015625 86.511719 35.46875 84.53125 C 30.921875 82.550781 26.945312 79.859375 23.542969 76.457031 C 20.140625 73.054688 17.449219 69.097656 15.46875 64.582031 C 13.488281 60.070312 12.5 55.207031 12.5 50 C 12.5 44.792969 13.488281 39.914062 15.46875 35.363281 C 17.449219 30.816406 20.140625 26.859375 23.542969 23.488281 C 26.945312 20.121094 30.902344 17.449219 35.417969 15.46875 C 39.929688 13.488281 44.792969 12.5 50 12.5 C 55.207031 12.5 60.085938 13.488281 64.636719 15.46875 C 69.183594 17.449219 73.140625 20.121094 76.511719 23.488281 C 79.878906 26.859375 82.550781 30.816406 84.53125 35.363281 C 86.511719 39.914062 87.5 44.792969 87.5 50 C 87.5 55.140625 86.511719 59.984375 84.53125 64.53125 C 82.550781 69.078125 79.878906 73.054688 76.511719 76.457031 C 73.140625 79.859375 69.183594 82.550781 64.636719 84.53125 C 60.085938 86.511719 55.207031 87.5 50 87.5 Z M 50 84.269531 C 59.515625 84.269531 67.605469 80.9375 74.269531 74.269531 C 80.9375 67.605469 84.269531 59.515625 84.269531 50 C 84.269531 40.484375 80.9375 32.394531 74.269531 25.730469 C 67.605469 19.0625 59.515625 15.730469 50 15.730469 C 40.484375 15.730469 32.394531 19.0625 25.730469 25.730469 C 19.0625 32.394531 15.730469 40.484375 15.730469 50 C 15.730469 59.515625 19.0625 67.605469 25.730469 74.269531 C 32.394531 80.9375 40.484375 84.269531 50 84.269531 Z M 50 50 Z M 50 50 "/>
</g>
</svg>
