<?xml version="1.0" encoding="UTF-8"?>
<svg xmlns="http://www.w3.org/2000/svg" xmlns:xlink="http://www.w3.org/1999/xlink" width="100px" height="100px" viewBox="0 0 100 100" version="1.1">
<g id="surface1">
<path style=" stroke:none;fill-rule:nonzero;fill:rgb(0%,0%,0%);fill-opacity:1;" d="M 35.9375 64.0625 L 64.0625 64.0625 L 64.0625 35.9375 L 35.9375 35.9375 Z M 50 87.5 C 44.792969 87.5 39.929688 86.511719 35.417969 84.53125 C 30.902344 82.550781 26.945312 79.859375 23.542969 76.457031 C 20.140625 73.054688 17.449219 69.097656 15.46875 64.582031 C 13.488281 60.070312 12.5 55.207031 12.5 50 C 12.5 44.792969 13.488281 39.914062 15.46875 35.363281 C 17.449219 30.816406 20.140625 26.859375 23.542969 23.488281 C 26.945312 20.121094 30.902344 17.449219 35.417969 15.46875 C 39.929688 13.488281 44.792969 12.5 50 12.5 C 55.207031 12.5 60.085938 13.488281 64.636719 15.46875 C 69.183594 17.449219 73.140625 20.121094 76.511719 23.488281 C 79.878906 26.859375 82.550781 30.816406 84.53125 35.363281 C 86.511719 39.914062 87.5 44.792969 87.5 50 C 87.5 55.207031 86.511719 60.070312 84.53125 64.582031 C 82.550781 69.097656 79.878906 73.054688 76.511719 76.457031 C 73.140625 79.859375 69.183594 82.550781 64.636719 84.53125 C 60.085938 86.511719 55.207031 87.5 50 87.5 Z M 50.105469 84.269531 C 59.546875 84.269531 67.605469 80.9375 74.269531 74.269531 C 80.9375 67.605469 84.269531 59.480469 84.269531 49.894531 C 84.269531 40.453125 80.953125 32.394531 74.324219 25.730469 C 67.691406 19.0625 59.582031 15.730469 50 15.730469 C 40.484375 15.730469 32.394531 19.046875 25.730469 25.675781 C 19.0625 32.308594 15.730469 40.417969 15.730469 50 C 15.730469 59.515625 19.0625 67.605469 25.730469 74.269531 C 32.394531 80.9375 40.519531 84.269531 50.105469 84.269531 Z M 50 50 Z M 50 50 "/>
</g>
</svg>
